ffmpeg started on 2025-06-19 at 12:01:10
Report written to "D:\Convert\FFMetrics\reports\psnr_report-6.txt"
Log level: 32
Command line:
ffmpeg -hide_banner -nostdin -i "G:\\\xc0\xed\xe8\xec\xe5\\[\xd2\xee\xef-4]\\Fate\\\xc0\xef\xee\xea\xf0\xe8\xf4\\Fate_Apocrypha_[16]_[AniLibria_TV]_[HDTVRip_720p]_HEVC.mkv" -i "G:\\\xc0\xed\xe8\xec\xe5\\[\xd2\xee\xef-4]\\Fate\\\xc0\xef\xee\xea\xf0\xe8\xf4\\Fate_Apocrypha_[16]_[AniLibria_TV]_[HDTVRip_720p].mkv" -lavfi "[0:v]settb=AVTB,setpts=PTS-STARTPTS,format=pix_fmts=yuv420p10,fps=24000/1001,scale=1280:720:flags=bicubic[main];[1:v]settb=AVTB,setpts=PTS-STARTPTS,format=pix_fmts=yuv420p,fps=24000/1001,scale=1280:720:flags=bicubic[ref];[main][ref]psnr=eof_action=endall:stats_file='D\\:/Convert/FFMetrics/logs/psnr_logfile-6.txt'" -f null -
Input #0, matroska,webm, from 'G:\Аниме\[Топ-4]\Fate\Апокриф\Fate_Apocrypha_[16]_[AniLibria_TV]_[HDTVRip_720p]_HEVC.mkv':
  Metadata:
    ENCODER         : Lavf61.7.100
  Duration: 00:24:00.17, start: -0.021000, bitrate: 549 kb/s
  Stream #0:0(jpn): Video: hevc (Main 10), yuv420p10le(tv, bt709, progressive), 1280x720 [SAR 1:1 DAR 16:9], 23.81 fps, 23.81 tbr, 1k tbn (default)
      Metadata:
        ENCODER         : Lavc61.19.100 libx265
        BPS             : 351913
        DURATION        : 00:24:00.054000000
        NUMBER_OF_FRAMES: 34526
        NUMBER_OF_BYTES : 63346770
        _STATISTICS_WRITING_APP: mkvpropedit v66.0.0 ('Josie') 64-bit
        _STATISTICS_WRITING_DATE_UTC: 2025-06-16 17:12:42
        _STATISTICS_TAGS: BPS DURATION NUMBER_OF_FRAMES NUMBER_OF_BYTES
  Stream #0:1(rus): Audio: aac (LC), 48000 Hz, stereo, fltp (default)
      Metadata:
        title           : Ados Amikiri Anzen Hekomi Silv
        ENCODER         : Lavc61.19.100 aac
        BPS             : 193756
        DURATION        : 00:24:00.149000000
        NUMBER_OF_FRAMES: 67508
        NUMBER_OF_BYTES : 34879727
        _STATISTICS_WRITING_APP: mkvpropedit v66.0.0 ('Josie') 64-bit
        _STATISTICS_WRITING_DATE_UTC: 2025-06-16 17:12:42
        _STATISTICS_TAGS: BPS DURATION NUMBER_OF_FRAMES NUMBER_OF_BYTES
  Stream #0:2(rus): Subtitle: ass (ssa) (default) (forced)
      Metadata:
        title           : Надписи
        BPS             : 490
        DURATION        : 00:00:03.000000000
        NUMBER_OF_FRAMES: 2
        NUMBER_OF_BYTES : 184
        _STATISTICS_WRITING_APP: mkvpropedit v66.0.0 ('Josie') 64-bit
        _STATISTICS_WRITING_DATE_UTC: 2025-06-16 17:12:42
        _STATISTICS_TAGS: BPS DURATION NUMBER_OF_FRAMES NUMBER_OF_BYTES
  Stream #0:3(rus): Subtitle: ass (ssa)
      Metadata:
        title           : Полные
        BPS             : 103
        DURATION        : 00:21:59.660000000
        NUMBER_OF_FRAMES: 231
        NUMBER_OF_BYTES : 17000
        _STATISTICS_WRITING_APP: mkvpropedit v66.0.0 ('Josie') 64-bit
        _STATISTICS_WRITING_DATE_UTC: 2025-06-16 17:12:42
        _STATISTICS_TAGS: BPS DURATION NUMBER_OF_FRAMES NUMBER_OF_BYTES
Input #1, matroska,webm, from 'G:\Аниме\[Топ-4]\Fate\Апокриф\Fate_Apocrypha_[16]_[AniLibria_TV]_[HDTVRip_720p].mkv':
  Metadata:
    encoder         : libebml v1.3.0 + libmatroska v1.4.1
    creation_time   : 2017-10-24T21:05:21.000000Z
  Duration: 00:24:00.15, start: 0.000000, bitrate: 1748 kb/s
  Stream #1:0: Video: h264 (Main), yuv420p(tv, bt709, progressive), 1280x720, SAR 1:1 DAR 16:9, 23.81 fps, 23.81 tbr, 1k tbn (default)
      Metadata:
        BPS             : 1347697
        BPS-eng         : 1347697
        DURATION        : 00:24:00.060000000
        DURATION-eng    : 00:24:00.060000000
        NUMBER_OF_FRAMES: 34526
        NUMBER_OF_FRAMES-eng: 34526
        NUMBER_OF_BYTES : 242595619
        NUMBER_OF_BYTES-eng: 242595619
        _STATISTICS_WRITING_APP: mkvmerge v7.3.0 ('Nouages') 64bit built on Oct 22 2014 18:53:34
        _STATISTICS_WRITING_APP-eng: mkvmerge v7.3.0 ('Nouages') 64bit built on Oct 22 2014 18:53:34
        _STATISTICS_WRITING_DATE_UTC: 2017-10-24 21:05:21
        _STATISTICS_WRITING_DATE_UTC-eng: 2017-10-24 21:05:21
        _STATISTICS_TAGS: BPS DURATION NUMBER_OF_FRAMES NUMBER_OF_BYTES
        _STATISTICS_TAGS-eng: BPS DURATION NUMBER_OF_FRAMES NUMBER_OF_BYTES
  Stream #1:1(rus): Audio: aac (LC), 48000 Hz, stereo, fltp (default)
      Metadata:
        title           : Ados Amikiri Anzen Hekomi Silv
        BPS             : 192092
        BPS-eng         : 192092
        DURATION        : 00:24:00.149000000
        DURATION-eng    : 00:24:00.149000000
        NUMBER_OF_FRAMES: 67507
        NUMBER_OF_FRAMES-eng: 67507
        NUMBER_OF_BYTES : 34580260
        NUMBER_OF_BYTES-eng: 34580260
        _STATISTICS_WRITING_APP: mkvmerge v7.3.0 ('Nouages') 64bit built on Oct 22 2014 18:53:34
        _STATISTICS_WRITING_APP-eng: mkvmerge v7.3.0 ('Nouages') 64bit built on Oct 22 2014 18:53:34
        _STATISTICS_WRITING_DATE_UTC: 2017-10-24 21:05:21
        _STATISTICS_WRITING_DATE_UTC-eng: 2017-10-24 21:05:21
        _STATISTICS_TAGS: BPS DURATION NUMBER_OF_FRAMES NUMBER_OF_BYTES
        _STATISTICS_TAGS-eng: BPS DURATION NUMBER_OF_FRAMES NUMBER_OF_BYTES
  Stream #1:2(jpn): Audio: aac (LC), 48000 Hz, stereo, fltp
      Metadata:
        title           : Оригинал
        BPS             : 204152
        BPS-eng         : 204152
        DURATION        : 00:24:00.106000000
        DURATION-eng    : 00:24:00.106000000
        NUMBER_OF_FRAMES: 67505
        NUMBER_OF_FRAMES-eng: 67505
        NUMBER_OF_BYTES : 36750123
        NUMBER_OF_BYTES-eng: 36750123
        _STATISTICS_WRITING_APP: mkvmerge v7.3.0 ('Nouages') 64bit built on Oct 22 2014 18:53:34
        _STATISTICS_WRITING_APP-eng: mkvmerge v7.3.0 ('Nouages') 64bit built on Oct 22 2014 18:53:34
        _STATISTICS_WRITING_DATE_UTC: 2017-10-24 21:05:21
        _STATISTICS_WRITING_DATE_UTC-eng: 2017-10-24 21:05:21
        _STATISTICS_TAGS: BPS DURATION NUMBER_OF_FRAMES NUMBER_OF_BYTES
        _STATISTICS_TAGS-eng: BPS DURATION NUMBER_OF_FRAMES NUMBER_OF_BYTES
  Stream #1:3(rus): Subtitle: ass (ssa) (default) (forced)
      Metadata:
        title           : Надписи
        BPS             : 490
        BPS-eng         : 490
        DURATION        : 00:00:03.000000000
        DURATION-eng    : 00:00:03.000000000
        NUMBER_OF_FRAMES: 2
        NUMBER_OF_FRAMES-eng: 2
        NUMBER_OF_BYTES : 184
        NUMBER_OF_BYTES-eng: 184
        _STATISTICS_WRITING_APP: mkvmerge v7.3.0 ('Nouages') 64bit built on Oct 22 2014 18:53:34
        _STATISTICS_WRITING_APP-eng: mkvmerge v7.3.0 ('Nouages') 64bit built on Oct 22 2014 18:53:34
        _STATISTICS_WRITING_DATE_UTC: 2017-10-24 21:05:21
        _STATISTICS_WRITING_DATE_UTC-eng: 2017-10-24 21:05:21
        _STATISTICS_TAGS: BPS DURATION NUMBER_OF_FRAMES NUMBER_OF_BYTES
        _STATISTICS_TAGS-eng: BPS DURATION NUMBER_OF_FRAMES NUMBER_OF_BYTES
  Stream #1:4(rus): Subtitle: ass (ssa)
      Metadata:
        title           : Полные
        BPS             : 103
        BPS-eng         : 103
        DURATION        : 00:21:59.660000000
        DURATION-eng    : 00:21:59.660000000
        NUMBER_OF_FRAMES: 231
        NUMBER_OF_FRAMES-eng: 231
        NUMBER_OF_BYTES : 17000
        NUMBER_OF_BYTES-eng: 17000
        _STATISTICS_WRITING_APP: mkvmerge v7.3.0 ('Nouages') 64bit built on Oct 22 2014 18:53:34
        _STATISTICS_WRITING_APP-eng: mkvmerge v7.3.0 ('Nouages') 64bit built on Oct 22 2014 18:53:34
        _STATISTICS_WRITING_DATE_UTC: 2017-10-24 21:05:21
        _STATISTICS_WRITING_DATE_UTC-eng: 2017-10-24 21:05:21
        _STATISTICS_TAGS: BPS DURATION NUMBER_OF_FRAMES NUMBER_OF_BYTES
        _STATISTICS_TAGS-eng: BPS DURATION NUMBER_OF_FRAMES NUMBER_OF_BYTES
  Stream #1:5: Attachment: ttf
      Metadata:
        filename        : ALBR.ttf
        mimetype        : application/x-truetype-font
  Stream #1:6: Attachment: ttf
      Metadata:
        filename        : 9511(1).ttf
        mimetype        : application/x-truetype-font
Stream mapping:
  Stream #0:0 (hevc) -> settb:default
  Stream #1:0 (h264) -> settb:default
  psnr:default -> Stream #0:0 (wrapped_avframe)
  Stream #0:1 -> #0:1 (aac (native) -> pcm_s16le (native))
Output #0, null, to 'pipe:':
  Metadata:
    encoder         : Lavf61.7.100
  Stream #0:0: Video: wrapped_avframe, yuv420p10le(tv, bt709, progressive), 1280x720 [SAR 1:1 DAR 16:9], q=2-31, 200 kb/s, 23.98 fps, 23.98 tbn
      Metadata:
        encoder         : Lavc61.19.100 wrapped_avframe
  Stream #0:1(rus): Audio: pcm_s16le, 48000 Hz, stereo, s16, 1536 kb/s (default)
      Metadata:
        title           : Ados Amikiri Anzen Hekomi Silv
        _STATISTICS_TAGS: BPS DURATION NUMBER_OF_FRAMES NUMBER_OF_BYTES
        BPS             : 193756
        DURATION        : 00:24:00.149000000
        NUMBER_OF_FRAMES: 67508
        NUMBER_OF_BYTES : 34879727
        _STATISTICS_WRITING_APP: mkvpropedit v66.0.0 ('Josie') 64-bit
        _STATISTICS_WRITING_DATE_UTC: 2025-06-16 17:12:42
        encoder         : Lavc61.19.100 pcm_s16le
frame=  557 fps=0.0 q=-0.0 size=N/A time=00:00:23.23 bitrate=N/A speed=44.7x    frame= 1168 fps=1133 q=-0.0 size=N/A time=00:00:48.71 bitrate=N/A speed=47.2x    frame= 1704 fps=1098 q=-0.0 size=N/A time=00:01:11.07 bitrate=N/A speed=45.8x    frame= 2047 fps=994 q=-0.0 size=N/A time=00:01:25.37 bitrate=N/A speed=41.5x    frame= 2490 fps=966 q=-0.0 size=N/A time=00:01:43.85 bitrate=N/A speed=40.3x    frame= 2871 fps=928 q=-0.0 size=N/A time=00:01:59.74 bitrate=N/A speed=38.7x    frame= 3298 fps=913 q=-0.0 size=N/A time=00:02:17.59 bitrate=N/A speed=38.1x    frame= 3669 fps=890 q=-0.0 size=N/A time=00:02:33.02 bitrate=N/A speed=37.1x    frame= 4174 fps=899 q=-0.0 size=N/A time=00:02:54.09 bitrate=N/A speed=37.5x    frame= 4721 fps=916 q=-0.0 size=N/A time=00:03:16.90 bitrate=N/A speed=38.2x    frame= 5113 fps=900 q=-0.0 size=N/A time=00:03:33.25 bitrate=N/A speed=37.6x    frame= 5712 fps=923 q=-0.0 size=N/A time=00:03:58.23 bitrate=N/A speed=38.5x    frame= 6266 fps=935 q=-0.0 size=N/A time=00:04:21.34 bitrate=N/A speed=  39x    frame= 6865 fps=950 q=-0.0 size=N/A time=00:04:46.32 bitrate=N/A speed=39.6x    frame= 7466 fps=965 q=-0.0 size=N/A time=00:05:11.39 bitrate=N/A speed=40.3x    frame= 7985 fps=969 q=-0.0 size=N/A time=00:05:33.04 bitrate=N/A speed=40.4x    frame= 8619 fps=983 q=-0.0 size=N/A time=00:05:59.48 bitrate=N/A speed=  41x    frame= 9211 fps=993 q=-0.0 size=N/A time=00:06:24.17 bitrate=N/A speed=41.4x    frame= 9843 fps=1004 q=-0.0 size=N/A time=00:06:50.53 bitrate=N/A speed=41.9x    frame=10468 fps=1015 q=-0.0 size=N/A time=00:07:16.60 bitrate=N/A speed=42.4x    frame=11075 fps=1022 q=-0.0 size=N/A time=00:07:41.91 bitrate=N/A speed=42.6x    frame=11636 fps=1026 q=-0.0 size=N/A time=00:08:05.31 bitrate=N/A speed=42.8x    frame=12183 fps=1028 q=-0.0 size=N/A time=00:08:28.13 bitrate=N/A speed=42.9x    frame=12821 fps=1036 q=-0.0 size=N/A time=00:08:54.74 bitrate=N/A speed=43.2x    frame=13411 fps=1041 q=-0.0 size=N/A time=00:09:19.35 bitrate=N/A speed=43.4x    frame=14070 fps=1049 q=-0.0 size=N/A time=00:09:46.83 bitrate=N/A speed=43.8x    frame=14721 fps=1058 q=-0.0 size=N/A time=00:10:13.98 bitrate=N/A speed=44.1x    frame=15371 fps=1064 q=-0.0 size=N/A time=00:10:41.09 bitrate=N/A speed=44.4x    frame=16002 fps=1070 q=-0.0 size=N/A time=00:11:07.41 bitrate=N/A speed=44.6x    frame=16511 fps=1067 q=-0.0 size=N/A time=00:11:28.64 bitrate=N/A speed=44.5x    frame=17072 fps=1068 q=-0.0 size=N/A time=00:11:52.04 bitrate=N/A speed=44.6x    frame=17536 fps=1062 q=-0.0 size=N/A time=00:12:11.39 bitrate=N/A speed=44.3x    frame=18195 fps=1069 q=-0.0 size=N/A time=00:12:38.88 bitrate=N/A speed=44.6x    frame=18842 fps=1075 q=-0.0 size=N/A time=00:13:05.86 bitrate=N/A speed=44.8x    frame=19390 fps=1074 q=-0.0 size=N/A time=00:13:28.72 bitrate=N/A speed=44.8x    frame=19853 fps=1070 q=-0.0 size=N/A time=00:13:48.03 bitrate=N/A speed=44.6x    frame=20392 fps=1069 q=-0.0 size=N/A time=00:14:10.51 bitrate=N/A speed=44.6x    frame=20974 fps=1070 q=-0.0 size=N/A time=00:14:34.79 bitrate=N/A speed=44.6x    frame=21593 fps=1074 q=-0.0 size=N/A time=00:15:00.60 bitrate=N/A speed=44.8x    frame=22185 fps=1076 q=-0.0 size=N/A time=00:15:25.29 bitrate=N/A speed=44.9x    frame=22776 fps=1078 q=-0.0 size=N/A time=00:15:49.94 bitrate=N/A speed=44.9x    frame=23366 fps=1079 q=-0.0 size=N/A time=00:16:14.55 bitrate=N/A speed=  45x    frame=23945 fps=1080 q=-0.0 size=N/A time=00:16:38.70 bitrate=N/A speed=  45x    frame=24545 fps=1082 q=-0.0 size=N/A time=00:17:03.77 bitrate=N/A speed=45.1x    frame=25173 fps=1085 q=-0.0 size=N/A time=00:17:29.92 bitrate=N/A speed=45.2x    frame=25734 fps=1085 q=-0.0 size=N/A time=00:17:53.32 bitrate=N/A speed=45.3x    frame=26268 fps=1084 q=-0.0 size=N/A time=00:18:15.59 bitrate=N/A speed=45.2x    frame=26842 fps=1084 q=-0.0 size=N/A time=00:18:39.53 bitrate=N/A speed=45.2x    frame=27345 fps=1082 q=-0.0 size=N/A time=00:19:00.51 bitrate=N/A speed=45.1x    frame=27899 fps=1082 q=-0.0 size=N/A time=00:19:23.62 bitrate=N/A speed=45.1x    frame=28442 fps=1081 q=-0.0 size=N/A time=00:19:46.26 bitrate=N/A speed=45.1x    frame=28914 fps=1078 q=-0.0 size=N/A time=00:20:05.95 bitrate=N/A speed=  45x    frame=29450 fps=1077 q=-0.0 size=N/A time=00:20:28.31 bitrate=N/A speed=44.9x    frame=29875 fps=1072 q=-0.0 size=N/A time=00:20:46.03 bitrate=N/A speed=44.7x    frame=30366 fps=1070 q=-0.0 size=N/A time=00:21:06.51 bitrate=N/A speed=44.6x    frame=30906 fps=1070 q=-0.0 size=N/A time=00:21:29.03 bitrate=N/A speed=44.6x    frame=31537 fps=1072 q=-0.0 size=N/A time=00:21:55.35 bitrate=N/A speed=44.7x    frame=32119 fps=1073 q=-0.0 size=N/A time=00:22:19.62 bitrate=N/A speed=44.8x    frame=32666 fps=1073 q=-0.0 size=N/A time=00:22:42.44 bitrate=N/A speed=44.8x    frame=33272 fps=1075 q=-0.0 size=N/A time=00:23:07.71 bitrate=N/A speed=44.8x    frame=33654 fps=1069 q=-0.0 size=N/A time=00:23:23.65 bitrate=N/A speed=44.6x    frame=34149 fps=1068 q=-0.0 size=N/A time=00:23:44.29 bitrate=N/A speed=44.5x    [Parsed_psnr_10 @ 00000277b1b6ccc0] PSNR y:39.479855 u:49.263639 v:49.594504 average:41.026291 min:8.767555 max:61.379929
[out#0/null @ 00000277a64deec0] video:14836KiB audio:270032KiB subtitle:0KiB other streams:0KiB global headers:0KiB muxing overhead: unknown
frame=34527 fps=1069 q=-0.0 Lsize=N/A time=00:24:00.06 bitrate=N/A speed=44.6x    
